<svg width="1280" height="366" viewBox="0 0 1280 366" fill="none" xmlns="http://www.w3.org/2000/svg">
<path d="M-818 366C-838 366 -852.667 362.667 -862 356C-871.333 349.333 -876 340 -876 328C-876 318.933 -873.2 311.6 -867.6 306C-862.267 300.667 -855.067 298 -846 298C-843.867 298 -841.733 298.133 -839.6 298.4C-837.467 298.933 -836 299.2 -835.2 299.2L-830 300V356L-827.6 357.2C-824.933 357.733 -823.067 358 -822 358C-813.733 358 -807.067 352.933 -802 342.8C-796.667 332.933 -794 316 -794 292V92L-818 86V80H-766C-742 80 -730 92 -730 116V292C-730 306.133 -733.467 318.8 -740.4 330C-747.333 341.2 -757.467 350 -770.8 356.4C-784.133 362.8 -799.867 366 -818 366ZM-766 56C-774 56 -780.667 53.3333 -786 48C-791.333 42.6667 -794 36 -794 28C-794 20 -791.333 13.3333 -786 8C-780.667 2.66665 -774 -1.90735e-05 -766 -1.90735e-05C-758 -1.90735e-05 -751.333 2.66665 -746 8C-740.667 13.3333 -738 20 -738 28C-738 36 -740.667 42.6667 -746 48C-751.333 53.3333 -758 56 -766 56ZM-577.969 286C-611.035 286 -637.035 276.667 -655.969 258C-674.635 239.067 -683.969 213.067 -683.969 180C-683.969 146.933 -674.635 121.067 -655.969 102.4C-637.035 83.4666 -611.035 74 -577.969 74C-544.902 74 -519.035 83.4666 -500.369 102.4C-481.435 121.067 -471.969 146.933 -471.969 180C-471.969 213.067 -481.435 239.067 -500.369 258C-519.035 276.667 -544.902 286 -577.969 286ZM-577.969 278C-567.302 278 -558.369 270.533 -551.169 255.6C-543.702 240.667 -539.969 215.467 -539.969 180C-539.969 144.533 -543.702 119.333 -551.169 104.4C-558.369 89.4667 -567.302 82 -577.969 82C-588.635 82 -597.702 89.4667 -605.169 104.4C-612.369 119.333 -615.969 144.533 -615.969 180C-615.969 215.467 -612.369 240.667 -605.169 255.6C-597.702 270.533 -588.635 278 -577.969 278ZM-443.828 92L-463.828 86V80H-413.828C-399.961 80 -389.028 82.9333 -381.028 88.8C-372.761 94.4 -365.695 102.8 -359.828 114L-312.228 206.4L-267.828 98L-297.828 86V80H-223.828V86L-255.828 98L-331.828 284H-343.828L-443.828 92ZM-154.016 286C-177.749 286 -196.016 280.933 -208.816 270.8C-221.616 260.667 -228.016 247.733 -228.016 232C-228.016 221.6 -225.749 211.333 -221.216 201.2C-219.349 196.4 -216.949 192 -214.016 188C-203.082 185.333 -191.216 182.933 -178.416 180.8C-149.616 176 -124.149 173.067 -102.016 172V160C-102.016 130.4 -105.616 110 -112.816 98.8C-120.016 87.6 -131.082 82 -146.016 82C-151.616 82 -156.416 82.6667 -160.416 84L-166.016 86V146L-171.216 147.2C-175.482 147.733 -179.082 148 -182.016 148C-191.082 148 -198.416 145.333 -204.016 140C-209.349 134.4 -212.016 127.067 -212.016 118C-212.016 105.733 -205.882 95.3333 -193.616 86.8C-181.082 78.2667 -162.549 74 -138.016 74C-117.216 74 -99.349 77.7333 -84.4156 85.2C-69.2156 92.4 -57.7489 102.533 -50.0156 115.6C-42.0156 128.4 -38.0156 143.2 -38.0156 160V268L-14.0156 274V280H-50.0156C-66.0156 280 -78.4156 275.067 -87.2156 265.2C-90.949 261.2 -93.8823 256.133 -96.0156 250C-99.7489 256.667 -104.149 262.667 -109.216 268C-121.216 280 -136.149 286 -154.016 286ZM-138.016 272C-128.149 272 -119.216 266.667 -111.216 256C-108.282 252 -105.216 246.667 -102.016 240V182C-114.282 182 -126.016 182.667 -137.216 184C-145.482 185.067 -151.082 185.733 -154.016 186C-155.349 188.933 -156.682 192.933 -158.016 198C-160.682 208.133 -162.016 218.133 -162.016 228C-162.016 242.933 -159.749 254 -155.216 261.2C-150.682 268.4 -144.949 272 -138.016 272ZM10.1719 274L34.1719 268V92L10.1719 86V80H46.1719C61.9052 80 74.3052 85.0667 83.3719 95.2C86.8385 99.2 89.7719 104.133 92.1719 110C95.9052 103.067 100.305 97.0667 105.372 92C117.372 80 132.305 74 150.172 74C165.105 74 178.439 77.2 190.172 83.6C202.172 89.7333 211.505 97.8667 218.172 108C224.839 118.133 228.172 128.8 228.172 140V268L252.172 274V280H200.172C176.172 280 164.172 268 164.172 244V140C164.172 123.2 161.105 110.4 154.972 101.6C149.105 92.5333 142.172 88 134.172 88C124.039 88 114.972 93.3333 106.972 104C103.505 108.533 100.572 113.867 98.1719 120V268L122.172 274V280H10.1719V274ZM276.188 274L300.188 268V92L276.188 86V80H312.188C327.921 80 340.321 85.0667 349.388 95.2C352.854 99.2 355.788 104.133 358.188 110C361.921 103.067 366.321 97.0667 371.388 92C383.388 80 398.321 74 416.188 74C431.121 74 444.454 77.2 456.188 83.6C468.188 89.7333 477.521 97.8667 484.188 108C490.854 118.133 494.188 128.8 494.188 140V268L518.188 274V280H466.188C442.188 280 430.188 268 430.188 244V140C430.188 123.2 427.121 110.4 420.988 101.6C415.121 92.5333 408.188 88 400.188 88C390.054 88 380.988 93.3333 372.988 104C369.521 108.533 366.588 113.867 364.188 120V268L388.188 274V280H276.188V274ZM578.391 366C566.391 366 557.057 362.8 550.391 356.4C543.724 350 540.391 341.2 540.391 330C540.391 319.867 543.057 312 548.391 306.4C553.991 300.8 561.324 298 570.391 298C572.524 298 574.657 298.133 576.791 298.4C578.924 298.933 580.391 299.2 581.191 299.2L586.391 300V354C594.124 352.667 600.924 348.4 606.791 341.2C612.657 334 619.191 321.6 626.391 304L634.391 284L530.391 92L510.391 86V80H560.391C574.257 80 585.191 82.9333 593.191 88.8C601.457 94.4 608.524 102.8 614.391 114L664.391 206.4L706.391 98L676.391 86V80H750.391V86L718.391 98L638.391 304C629.857 325.867 620.791 341.6 611.191 351.2C601.591 361.067 590.657 366 578.391 366ZM870.328 274L894.328 268V12L870.328 5.99998V-1.90735e-05H922.328C946.328 -1.90735e-05 958.328 12 958.328 36V268L982.328 274V280H870.328V274ZM1114.27 286C1080.13 286 1053.6 276.667 1034.67 258C1015.73 239.067 1006.27 213.067 1006.27 180C1006.27 158.4 1010.4 139.6 1018.67 123.6C1026.93 107.6 1038.4 95.3333 1053.07 86.8C1068 78.2667 1085.07 74 1104.27 74C1123.47 74 1140.27 77.6 1154.67 84.8C1169.33 92 1180.53 101.733 1188.27 114C1196.27 126 1200.27 139.333 1200.27 154C1200.27 160.667 1199.6 166.4 1198.27 171.2L1196.27 178C1184.8 180.4 1172.4 182.4 1159.07 184C1131.07 188 1102.8 190 1074.27 190C1074.27 220.933 1078.53 243.067 1087.07 256.4C1095.6 269.467 1107.33 276 1122.27 276C1132.67 276 1142.27 273.6 1151.07 268.8C1160.13 263.733 1167.2 257.2 1172.27 249.2C1177.6 240.933 1180.27 232.533 1180.27 224H1190.27C1190.27 234.667 1187.07 244.8 1180.67 254.4C1174.27 264 1165.33 271.733 1153.87 277.6C1142.4 283.2 1129.2 286 1114.27 286ZM1074.27 180C1091.33 180 1105.2 179.333 1115.87 178C1120.4 177.733 1125.2 177.067 1130.27 176C1130.53 174.667 1131.2 171.733 1132.27 167.2C1133.6 160.533 1134.27 153.467 1134.27 146C1134.27 123.867 1131.33 107.733 1125.47 97.6C1119.6 87.2 1112.53 82 1104.27 82C1084.27 82 1074.27 114.667 1074.27 180ZM1230.09 274L1254.09 268V92L1230.09 86V80H1266.09C1281.83 80 1294.23 85.0667 1303.29 95.2C1306.76 99.2 1309.69 104.133 1312.09 110C1316.09 102.533 1320.36 96.5333 1324.89 92C1336.89 80 1350.63 74 1366.09 74C1381.56 74 1395.16 77.4667 1406.89 84.4C1418.63 91.0667 1427.69 100.267 1434.09 112C1438.09 104.267 1442.36 98 1446.89 93.2C1459.16 80.4 1472.89 74 1488.09 74C1502.23 74 1514.89 76.9333 1526.09 82.8C1537.56 88.6667 1546.36 96.6667 1552.49 106.8C1558.89 116.933 1562.09 128 1562.09 140V268L1586.09 274V280H1534.09C1510.09 280 1498.09 268 1498.09 244V140C1498.09 122.667 1495.43 109.733 1490.09 101.2C1484.76 92.4 1478.76 88 1472.09 88C1464.36 88 1456.49 93.3333 1448.49 104C1445.29 109.067 1442.49 114.4 1440.09 120V268L1464.09 274V280H1352.09V274L1376.09 268V140C1376.09 122.667 1373.43 109.733 1368.09 101.2C1362.76 92.4 1356.76 88 1350.09 88C1342.36 88 1334.49 93.3333 1326.49 104C1323.29 109.067 1320.49 114.4 1318.09 120V268L1342.09 274V280H1230.09V274ZM1716.17 286C1683.11 286 1657.11 276.667 1638.17 258C1619.51 239.067 1610.17 213.067 1610.17 180C1610.17 146.933 1619.51 121.067 1638.17 102.4C1657.11 83.4666 1683.11 74 1716.17 74C1749.24 74 1775.11 83.4666 1793.77 102.4C1812.71 121.067 1822.17 146.933 1822.17 180C1822.17 213.067 1812.71 239.067 1793.77 258C1775.11 276.667 1749.24 286 1716.17 286ZM1716.17 278C1726.84 278 1735.77 270.533 1742.97 255.6C1750.44 240.667 1754.17 215.467 1754.17 180C1754.17 144.533 1750.44 119.333 1742.97 104.4C1735.77 89.4667 1726.84 82 1716.17 82C1705.51 82 1696.44 89.4667 1688.97 104.4C1681.77 119.333 1678.17 144.533 1678.17 180C1678.17 215.467 1681.77 240.667 1688.97 255.6C1696.44 270.533 1705.51 278 1716.17 278ZM1854.31 274L1878.31 268V92L1854.31 86V80H1890.31C1906.05 80 1918.45 85.0667 1927.51 95.2C1930.98 99.2 1933.91 104.133 1936.31 110C1940.05 103.067 1944.45 97.0667 1949.51 92C1961.51 80 1976.45 74 1994.31 74C2009.25 74 2022.58 77.2 2034.31 83.6C2046.31 89.7333 2055.65 97.8667 2062.31 108C2068.98 118.133 2072.31 128.8 2072.31 140V268L2096.31 274V280H2044.31C2020.31 280 2008.31 268 2008.31 244V140C2008.31 123.2 2005.25 110.4 1999.11 101.6C1993.25 92.5333 1986.31 88 1978.31 88C1968.18 88 1959.11 93.3333 1951.11 104C1947.65 108.533 1944.71 113.867 1942.31 120V268L1966.31 274V280H1854.31V274ZM2198.33 286C2174.59 286 2156.33 280.933 2143.53 270.8C2130.73 260.667 2124.33 247.733 2124.33 232C2124.33 221.6 2126.59 211.333 2131.13 201.2C2132.99 196.4 2135.39 192 2138.33 188C2149.26 185.333 2161.13 182.933 2173.93 180.8C2202.73 176 2228.19 173.067 2250.33 172V160C2250.33 130.4 2246.73 110 2239.53 98.8C2232.33 87.6 2221.26 82 2206.33 82C2200.73 82 2195.93 82.6667 2191.93 84L2186.33 86V146L2181.13 147.2C2176.86 147.733 2173.26 148 2170.33 148C2161.26 148 2153.93 145.333 2148.33 140C2142.99 134.4 2140.33 127.067 2140.33 118C2140.33 105.733 2146.46 95.3333 2158.73 86.8C2171.26 78.2667 2189.79 74 2214.33 74C2235.13 74 2252.99 77.7333 2267.93 85.2C2283.13 92.4 2294.59 102.533 2302.33 115.6C2310.33 128.4 2314.33 143.2 2314.33 160V268L2338.33 274V280H2302.33C2286.33 280 2273.93 275.067 2265.13 265.2C2261.39 261.2 2258.46 256.133 2256.33 250C2252.59 256.667 2248.19 262.667 2243.13 268C2231.13 280 2216.19 286 2198.33 286ZM2214.33 272C2224.19 272 2233.13 266.667 2241.13 256C2244.06 252 2247.13 246.667 2250.33 240V182C2238.06 182 2226.33 182.667 2215.13 184C2206.86 185.067 2201.26 185.733 2198.33 186C2196.99 188.933 2195.66 192.933 2194.33 198C2191.66 208.133 2190.33 218.133 2190.33 228C2190.33 242.933 2192.59 254 2197.13 261.2C2201.66 268.4 2207.39 272 2214.33 272ZM2444.52 286C2428.78 286 2414.78 282 2402.52 274C2390.25 265.733 2380.52 253.733 2373.32 238C2366.12 222 2362.52 202.667 2362.52 180C2362.52 145.867 2370.38 119.733 2386.12 101.6C2402.12 83.2 2423.58 74 2450.52 74C2463.32 74 2474.52 76.6666 2484.12 82C2488.12 83.8667 2492.25 86.5333 2496.52 90V12L2472.52 5.99998V-1.90735e-05H2524.52C2548.52 -1.90735e-05 2560.52 12 2560.52 36V268L2584.52 274V280H2548.52C2532.52 280 2520.12 275.067 2511.32 265.2C2507.58 261.2 2504.65 256.133 2502.52 250C2499.05 256.667 2494.65 262.667 2489.32 268C2477.32 280 2462.38 286 2444.52 286ZM2460.52 272C2470.38 272 2479.32 266.667 2487.32 256C2490.25 252 2493.32 246.667 2496.52 240V102C2493.58 99.0667 2490.52 96.4 2487.32 94C2480.12 88.6667 2473.18 86 2466.52 86C2455.05 86 2446.12 92.6667 2439.72 106C2433.58 119.333 2430.52 144 2430.52 180C2430.52 214.4 2433.32 238.4 2438.92 252C2444.78 265.333 2451.98 272 2460.52 272Z" fill="black"/>
</svg>
