<svg width="1280" height="499" viewBox="0 0 1280 499" fill="none" xmlns="http://www.w3.org/2000/svg">
<path fill-rule="evenodd" clip-rule="evenodd" d="M166.558 414.594C112.386 403.303 56.8623 390.695 0 376.666V8.16394C15.09 2.93372 32.7592 0.454102 52.6774 0.352417C51.4851 2.47424 50.317 4.66113 49.173 6.91284C34.5287 35.7368 30.5742 61.3646 37.3098 83.7961C44.1597 106.578 60.3695 124.465 85.9392 137.456C111.509 150.447 135.397 152.932 157.604 144.913C179.924 137.244 198.407 118.997 213.052 90.173C219.665 77.1556 222.958 63.7672 222.93 50.0076C222.968 44.0853 222.538 38.3535 221.641 32.812C231.077 35.7445 240.676 38.8436 250.426 42.0959C250.465 42.2456 250.503 42.3953 250.541 42.5449L250.595 42.7627C250.659 43.0219 250.721 43.281 250.781 43.5402C253.397 53.9348 253.394 63.4381 250.773 72.0502L223.976 159.332C220.757 170.272 220.697 179.6 223.796 187.316C226.895 195.032 233.558 201.488 243.786 206.684L275.167 222.628L277.824 217.398L263.048 203.31L289.845 116.028C296.404 94.7509 296.882 74.8333 291.277 56.2755C384.382 89.7505 488.849 134.576 595.413 180.301C856.394 292.284 1129.95 409.664 1280 378.936V476.502C1157.98 492.953 1009.83 502.429 836.593 497.214C838.157 496.256 839.676 495.121 841.149 493.81C846.701 489.226 851.087 481.846 854.307 471.671C857.526 461.495 859.02 448.626 858.787 433.063C858.512 414.688 855.309 400.951 849.178 391.854C843.049 382.943 835.677 378.552 827.062 378.681C820.693 378.777 815.571 380.729 811.694 384.538C808.007 388.531 806.211 393.716 806.306 400.091C806.337 402.153 806.562 404.682 806.982 407.676L807.879 411.32L850.021 410.689L851.498 415.449C852.485 418.81 853.014 422.835 853.084 427.522C853.205 435.585 850.585 442.094 845.227 447.051C839.868 452.007 832.319 454.558 822.579 454.704C812.84 454.85 805.218 452.526 799.713 447.732C794.208 442.938 791.396 436.51 791.275 428.448L791.085 415.791L784.062 415.896L784.335 434.178C784.456 442.24 781.65 448.753 775.917 453.715C770.183 458.677 761.885 461.239 751.021 461.401C728.546 461.738 717.146 451.125 716.824 429.562C716.689 420.562 718.254 412.474 721.519 405.298C724.973 398.308 729.481 392.801 735.041 388.78C740.601 384.758 746.471 382.701 752.652 382.608L752.547 375.577C744.868 375.692 737.692 378.144 731.019 382.932C724.534 387.718 719.297 394.548 715.308 403.422C711.51 412.481 709.702 423.105 709.884 435.292C710.271 461.168 714.203 479.769 721.679 491.098C721.835 491.329 721.993 491.559 722.152 491.786C594.201 483.545 454.219 467.395 302.563 440.736C307.434 434.085 311.77 426.552 315.571 418.138L344.703 430.526C361.35 437.604 373.213 432.82 380.292 416.173L395.629 380.105L391.467 378.335L380.227 393.212L334.447 373.746C341.156 356.942 344.001 341.006 342.981 325.939C341.962 310.872 337.504 297.728 329.608 286.508C321.817 275.551 311.448 267.319 298.501 261.814C285.553 256.308 272.339 254.511 258.858 256.423C245.483 258.599 233.017 264.546 221.458 274.265C209.899 283.984 200.396 297.088 192.947 313.578L147.168 294.111L150.085 275.694L145.923 273.925L112.889 351.611L117.051 353.381L128.292 338.503L174.071 357.97C167.362 374.774 164.517 390.71 165.537 405.776C165.741 408.798 166.082 411.737 166.558 414.594ZM775.537 494.806C786.088 495.319 796.552 495.779 806.93 496.186C806.119 495.545 805.35 494.842 804.622 494.076C800.057 489.456 796.31 483.229 793.383 475.396C790.646 467.748 789.112 459.143 788.781 449.584L787.376 449.605C787.338 459.545 785.983 469.13 783.311 478.36C781.456 484.659 778.865 490.141 775.537 494.806ZM67.1426 0.672485C62.0629 2.76416 58.3976 6.02527 56.1466 10.4558C51.895 18.8241 54.0471 28.691 62.6028 40.0568C71.0405 51.6549 88.8577 64.3628 116.055 78.1804C143.251 91.9982 164.021 98.8948 178.364 98.8704C192.588 99.0784 201.826 94.9983 206.078 86.63C210.329 78.2617 208.236 68.2786 199.799 56.6804C191.243 45.3147 173.367 32.7229 146.17 18.9053C136.863 14.1765 128.315 10.2448 120.526 7.10999C101.494 3.66589 83.6451 1.45935 67.1426 0.672485ZM328.898 371.386C332.484 360.899 330.475 350.216 322.869 339.337C315.264 328.459 300.456 318.34 278.444 308.98C256.433 299.621 238.872 295.976 225.761 298.045C212.65 300.115 203.562 306.078 198.496 315.937L328.898 371.386ZM179.62 360.329C176.034 370.817 178.044 381.5 185.649 392.378C193.254 403.257 208.062 413.376 230.074 422.735C252.085 432.095 269.646 435.74 282.757 433.671C295.868 431.601 304.956 425.637 310.022 415.779L179.62 360.329Z" fill="black"/>
</svg>
