<svg width="1280" height="293" viewBox="0 0 1280 293" fill="none" xmlns="http://www.w3.org/2000/svg">
<path fill-rule="evenodd" clip-rule="evenodd" d="M0 282.131C63.5609 296.075 167.245 294.743 289.037 284.467L282.334 282.694L282.856 280.722L291.272 280.837L306.578 222.971L299.204 218.91L299.726 216.937L336.57 226.682L336.048 228.654L327.631 228.539L313.408 282.315C569.803 258.698 897.293 198.685 1101.67 158.139L1076.07 152.558L1076.83 149.052L1091.59 148.597L1109.43 66.7939L1048.51 148.996L1042.91 147.775L1011.49 45.4365L994.417 123.733L1011.54 134.813L1010.78 138.319L966.473 128.657L967.237 125.151L987.421 122.208L1005.23 40.5552C945.833 54.8706 880.597 71.8608 812.338 89.6387L812.298 89.6489L812.292 89.6504C629.944 137.142 426.031 190.249 254.308 212.996L249.347 231.755L255.926 233.496C278.734 239.528 288.398 249.12 284.92 262.271C281.442 275.423 268.298 278.982 245.491 272.95L209.963 263.553L210.485 261.581L218.901 261.696L231.01 215.916C141.606 226.464 61.9348 228.022 0 215.231V282.131ZM1045.55 31.0547C1154.64 6.02 1239.54 -7.42727 1280 4.27049V121.414C1255.3 126.725 1201.84 138.073 1129.82 152.522L1151.33 53.895L1166.08 53.4404L1166.85 49.9346L1143.53 44.8491C1135.29 43.0527 1128.58 43.2207 1123.39 45.354C1118.2 47.4873 1113.45 51.3481 1109.14 56.9365L1071.44 107.721L1052.01 44.478C1050.46 39.2851 1048.31 34.811 1045.55 31.0547ZM256.518 267.986C253.606 270.124 250.22 270.683 246.36 269.662L239.781 267.922L248.477 235.043L255.056 236.783C258.916 237.804 261.571 240.007 263.022 243.393C264.584 246.714 264.646 251.093 263.209 256.529C261.771 261.965 259.541 265.784 256.518 267.986Z" fill="black"/>
</svg>
