<svg width="1280" height="175" viewBox="0 0 1280 175" fill="none" xmlns="http://www.w3.org/2000/svg">
<path fill-rule="evenodd" clip-rule="evenodd" d="M227.273 134.231C226.227 130.191 225.943 126.217 226.422 122.309C227.127 113.173 230.638 105.164 236.956 98.2825L161.776 29.2699L163.807 27.0578L174.769 33.0452L205.015 0.0968018C114.587 0.967285 42.1958 11.0582 4.57764e-05 37C-196 157.5 -90.4999 174.5 -90.4999 174.5C-90.4999 174.5 -46.9996 170.316 25.4885 164.215C21.6699 158.744 19.2053 152.892 18.0949 146.658C15.9064 133.845 19.4474 120.867 28.7178 107.724C34.7735 99.1385 41.6808 92.8205 49.4397 88.7698C57.1985 84.7191 65.1778 83.046 73.3774 83.7504C81.6826 84.5294 89.6363 87.6 97.2385 92.9622C104.841 98.3245 110.483 104.447 114.166 111.331C117.955 118.289 119.661 125.285 119.284 132.321C119.087 139.325 116.933 145.741 112.821 151.571C111.082 154.036 109.342 156.019 107.599 157.519C425.115 132.442 1040.96 93.0618 1324 138C1714.5 200 1604.5 -64.0001 1324 37C1186.57 86.4834 913.046 58.5552 646.717 31.3619C516.977 18.1149 388.945 5.0423 279.186 1.17798L317.297 36.1625L315.266 38.3746L304.303 32.3871L244.062 98.0121L257.46 110.311L231.739 138.331L227.273 134.231ZM100.273 158.1C96.3524 156.288 92.2939 154.251 88.0973 151.988C75.8893 145.758 64.1364 138.659 52.8387 130.69C44.1664 142.985 39.6505 152.974 39.2912 160.656C39.2604 161.477 39.2659 162.277 39.3078 163.058C58.003 161.501 78.3965 159.837 100.273 158.1ZM197.912 55.6479L248.684 0.338867C257.061 0.50061 265.561 0.725037 274.177 1.00763L280.484 10.5217L220.243 76.1467L197.912 55.6479ZM83.8056 63.2498C84.4221 66.8591 86.3142 69.7809 89.4818 72.0153C92.6493 74.2495 96.0366 75.0515 99.6436 74.4212C103.251 73.791 106.175 71.8859 108.418 68.7062C110.661 65.5264 111.474 62.1319 110.858 58.5225C110.241 54.9132 108.349 51.9914 105.182 49.7571C102.014 47.5228 98.6268 46.7208 95.0199 47.3511C91.4129 47.9814 88.488 49.8865 86.2452 53.0662C84.0023 56.2459 83.1891 59.6405 83.8056 63.2498ZM113.106 83.9169C113.722 87.5262 115.614 90.4481 118.782 92.6824C121.95 94.9166 125.337 95.7186 128.944 95.0883C132.551 94.458 135.476 92.553 137.718 89.3733C139.961 86.1935 140.774 82.799 140.158 79.1896C139.542 75.5803 137.649 72.6585 134.482 70.4242C131.314 68.1899 127.927 67.3879 124.32 68.0182C120.713 68.6486 117.788 70.5536 115.545 73.7333C113.302 76.913 112.489 80.3076 113.106 83.9169ZM72.6744 137.539C68.0772 135.089 62.3998 131.482 55.6423 126.715C73.9589 100.747 87.0767 90.5563 94.9957 96.142C98.2688 98.4507 99.609 102.491 99.0162 108.263C98.4982 113.929 95.1365 121.161 88.9313 129.958C86.838 132.926 84.5928 135.549 82.1958 137.826C80.5025 139.33 79.4162 140.31 78.9368 140.765C76.6316 139.774 74.5442 138.699 72.6744 137.539Z" fill="black"/>
</svg>
