<svg width="1280" height="944" viewBox="0 0 1280 944" fill="none" xmlns="http://www.w3.org/2000/svg">
<path fill-rule="evenodd" clip-rule="evenodd" d="M1112.12 75.6814C1183.7 33.8718 1241.38 5.84399 1280 0.645752V141.104C1277.1 136.554 1272.56 132.726 1266.36 129.618C1254.2 123.516 1242.21 126.74 1230.38 139.289L1210.96 160.743C1206.71 165.08 1201.77 168.031 1196.14 169.597C1190.61 170.979 1185.17 170.329 1179.82 167.648L1171.53 163.488L1198.63 109.492L1217.29 113.659L1219.38 109.506L1142 70.6775L1139.91 74.8308L1154.41 87.3047L1127.32 141.3L1117.64 136.446C1112.48 133.858 1108.99 130.024 1107.16 124.945C1105.32 119.865 1104.92 114.233 1105.95 108.048L1111.54 79.6599C1111.69 78.825 1111.82 78.0032 1111.93 77.1946C1112 76.6851 1112.06 76.1807 1112.12 75.6814ZM1266.11 181.137C1271.86 179.223 1276.49 174.823 1280 167.936V334.111C1231.8 348.162 1180.69 365.345 1127.7 384.923C1127.73 384.577 1127.75 384.23 1127.77 383.883C1128.75 372.411 1126.14 361.114 1119.93 349.989C1114 338.816 1104.62 328.662 1091.79 319.527C1076.66 308.752 1063.35 303.249 1051.86 303.018C1040.54 302.904 1032.18 306.637 1026.78 314.217C1022.8 319.82 1021.21 325.523 1022.04 331.326C1023.15 337.081 1026.5 341.949 1032.09 345.931C1033.9 347.22 1036.24 348.636 1039.11 350.18L1042.84 351.723L1069.24 314.645L1073.57 315.869C1076.63 316.802 1079.88 318.498 1083.34 320.957C1092.55 327.516 1096.91 335.836 1096.42 345.92C1095.94 356.003 1089.18 370.19 1076.16 388.482L1070.88 395.897C1056.76 386.836 1039.76 377.464 1019.88 367.781C1011.05 363.478 1002.67 359.75 994.753 356.596C991.184 357.779 987.768 359.444 984.504 361.591C977.249 365.862 971.334 371.21 966.758 377.637C959.836 387.36 958.094 398.163 961.531 410.046C964.707 421.026 972.665 431.383 985.405 441.117C684.769 566.694 354.745 743.538 156.843 854.143L220.747 736.94L242.045 742.465L244.604 737.771L96.2487 656.881L93.6896 661.575L112.14 679.753L55.5645 768.653C47.0167 781.854 36.5967 791.056 24.3046 796.261C17.6187 799.11 11.9844 800.774 7.40173 801.252L0 797.216V648.932C298.132 594.5 640.242 374.979 903.396 206.121C976.608 159.142 1043.71 116.086 1102.05 81.5964L1097.66 103.887C1096.07 110.719 1096.52 117.413 1099 123.97C1099.73 126.186 1101.11 128.495 1103.13 130.897L1094.84 126.737C1083.97 121.282 1074.29 119.199 1065.8 120.486C1057.59 121.681 1050.44 125.139 1044.34 130.859L1008.99 166.845L993.084 164.065L991 168.218L1020.02 182.779C1029.78 187.678 1038.72 189.392 1046.84 187.92C1055.15 186.541 1062.12 182.99 1067.75 177.27L1105.88 139.208L1123.84 148.222L1093.27 209.14L1074.61 204.973L1072.52 209.126L1149.9 247.955L1151.99 243.801L1137.49 231.328L1168.06 170.41L1186.02 179.424L1178.3 232.739C1177.08 240.678 1178.31 248.343 1181.98 255.731C1185.84 263.212 1192.65 269.403 1202.41 274.303L1231.43 288.863L1233.51 284.71L1221.78 273.623L1229.5 223.77C1230.44 215.461 1228.84 207.612 1224.71 200.223C1220.85 192.742 1213.49 186.274 1202.62 180.819L1194.33 176.659C1197.46 176.846 1200.14 176.571 1202.35 175.833C1208.54 174.083 1214.17 170.44 1219.25 164.903L1238.67 143.449C1244.4 136.621 1250.4 133.855 1256.67 135.151L1237.91 172.532L1240.81 175.027C1243.2 176.691 1245.69 178.17 1248.27 179.464C1254.53 182.607 1260.48 183.165 1266.11 181.137ZM0 943.535C24.129 929.465 66.2936 905.086 121.83 873.792L14.0681 815.035C10.2499 822.037 5.56055 828.117 0 833.273V943.535ZM999.682 435.183C1020.08 426.749 1040.32 418.56 1060.37 410.655L1066.48 402.077C1058.91 396.69 1051.38 391.948 1043.89 387.854C1038.32 384.882 1034.57 382.834 1032.64 381.711C1030.53 382.938 1027.95 384.824 1024.9 387.37C1018.79 392.461 1013.57 398.055 1009.23 404.152C1002.66 413.38 999.19 421.214 998.818 427.654C998.655 430.494 998.942 433.003 999.682 435.183ZM171.627 708.129L94.8536 848.935L18.3333 807.212C23.4653 806.222 28.7872 804.388 34.2991 801.71C46.516 795.652 56.7278 786.336 64.9343 773.762L123.216 681.733L171.627 708.129Z" fill="black"/>
</svg>
