<svg width="1280" height="377" viewBox="0 0 1280 377" fill="none" xmlns="http://www.w3.org/2000/svg">
<path fill-rule="evenodd" clip-rule="evenodd" d="M0 245.68C5.86865 249.286 11.8468 252.815 17.9308 256.268L37.6102 238.444C43.806 232.833 52.7264 231.235 64.3715 233.651C69.0215 234.765 74.0695 236.674 79.5156 239.379L80.1267 238.3C73.6399 234.436 67.8663 229.646 62.8058 223.929C52.5623 212.047 50.5776 200.566 56.8518 189.489C61.9037 180.57 70.3737 175.771 82.2616 175.095C94.2924 174.499 110.089 179.74 129.651 190.82L186.409 222.969L184.576 226.206L169.892 222.164L123.132 304.72C362.47 393.716 699.845 397.14 994.639 329.439L953.037 232.108L934.769 235.023L933 230.886L1003.12 200.912C1019.07 194.095 1032.89 190.146 1044.57 189.068C1056.44 187.912 1065.8 189.021 1072.66 192.396C1079.45 195.586 1084.1 200.123 1086.61 206.009C1089.76 213.364 1089.93 220.36 1087.13 226.995C1084.51 233.552 1080.06 239.37 1073.77 244.449C1067.09 250.131 1059.39 254.944 1050.67 258.89L1051.26 260.269C1062.16 255.829 1072.37 253.095 1081.91 252.064C1091.52 251.219 1099.97 251.958 1107.25 254.283C1114.63 256.346 1119.94 261.147 1123.16 268.688C1126.75 277.082 1126.44 285.774 1122.24 294.765C1177.7 277.194 1230.65 256.9 1280 233.997V93.5928L1278.48 93.8574L1278.27 93.8955L1277.86 93.9658L1277.23 94.0771C1249.5 98.9131 1219.96 104.066 1188.93 109.349C1191.36 110.252 1193.88 111.285 1196.47 112.446C1216.79 121.558 1230.09 134.324 1236.38 150.745C1242.89 167.078 1241.71 185.137 1232.84 204.92C1223.97 224.703 1211.24 237.676 1194.64 243.838C1178.27 249.912 1159.93 248.394 1139.6 239.282C1130.64 235.265 1123.47 230.038 1118.1 223.603C1112.79 217.008 1109.5 209.978 1108.24 202.513C1106.97 195.047 1107.77 188.124 1110.63 181.742L1116.63 184.433C1114.34 189.538 1113.61 195.245 1114.43 201.554C1115.49 207.774 1117.97 213.585 1121.9 218.983C1126.05 224.295 1131.25 228.349 1137.49 231.146C1146.13 235.021 1154.64 234.241 1163.04 228.808C1171.5 223.214 1180.46 210.749 1189.89 191.412L1171.89 183.341C1169.36 186.42 1165.54 189.787 1160.45 193.441C1159.07 194.359 1157.89 195.073 1156.89 195.584C1155.89 196.095 1155.01 196.562 1154.24 196.984L1148.24 194.294L1167.02 152.415L1173.02 155.105L1174.39 162.331C1175.22 168.64 1175.28 173.649 1174.57 177.358L1192.58 185.429C1202.09 164.21 1206.18 148.225 1204.85 137.474C1203.75 126.634 1198.65 119.17 1189.52 115.08C1186.16 113.574 1183.1 112.682 1180.35 112.403L1176.45 112.093L1160.36 147.99L1156.91 147.309C1154.21 146.48 1151.98 145.671 1150.22 144.882C1144.78 142.442 1141.09 138.874 1139.16 134.177C1137.46 129.392 1137.83 124.287 1140.26 118.862C1140.49 118.362 1140.73 117.876 1140.98 117.401C757.017 180.911 189.822 249.168 6.50012 9.00098C4.31445 6.1377 2.14783 3.30957 0 0.51709V245.68ZM1041.75 317.916C1055.11 314.444 1068.37 310.823 1081.5 307.055C1081.97 301.3 1080.73 294.977 1077.79 288.082C1073.7 278.52 1068.13 272.09 1061.09 268.794C1054.04 265.498 1046.57 265.535 1038.69 268.904L1023.57 275.37L1041.75 317.916ZM86.2208 289.974L105.066 256.701L87.9316 246.996L61.182 271.747C59.3892 273.371 57.3956 274.729 55.2014 275.822C65.3068 280.725 75.6511 285.441 86.2208 289.974ZM136.234 201.675L108.122 251.306L98.4836 245.847C92.3438 242.369 88.599 237.493 87.2495 231.219C85.9814 224.8 87.629 217.562 92.192 209.506C96.7551 201.45 102.074 196.388 108.15 194.318C114.307 192.105 120.455 192.737 126.595 196.216L136.234 201.675ZM1030.24 264.359C1036.66 261.616 1041.02 256.599 1043.32 249.307C1045.63 242.015 1044.93 234.047 1041.24 225.403C1037.78 217.312 1032.66 211.67 1025.87 208.479C1019.09 205.29 1012.49 205.065 1006.07 207.809L996.447 211.923L1020.62 268.474L1030.24 264.359Z" fill="black"/>
</svg>
