<svg width="1280" height="499" viewBox="0 0 1280 499" fill="none" xmlns="http://www.w3.org/2000/svg">
<path fill-rule="evenodd" clip-rule="evenodd" d="M166.558 414.241C112.386 402.95 56.8623 390.343 0 376.314V7.81152C15.09 2.5813 32.7592 0.101685 52.6774 0C51.4851 2.12183 50.317 4.30872 49.173 6.56042C34.5287 35.3844 30.5742 61.0122 37.3098 83.4437C44.1597 106.226 60.3695 124.112 85.9392 137.103C111.509 150.094 135.397 152.58 157.604 144.56C179.924 136.891 198.407 118.645 213.052 89.8206C219.665 76.8032 222.958 63.4148 222.93 49.6552C222.968 43.7329 222.538 38.0011 221.641 32.4596C231.077 35.3921 240.676 38.4912 250.426 41.7435C250.484 41.9658 250.54 42.1881 250.595 42.4103C250.659 42.6694 250.721 42.9286 250.781 43.1877C253.397 53.5824 253.394 63.0857 250.773 71.6978L223.976 158.979C220.757 169.92 220.697 179.248 223.796 186.964C226.895 194.68 233.558 201.136 243.786 206.332L275.167 222.276L277.824 217.045L263.048 202.958L289.845 115.676C296.404 94.3984 296.882 74.4808 291.277 55.9231C384.382 89.3981 488.849 134.223 595.413 179.949C856.394 291.932 1129.95 409.312 1280 378.584V476.149C1157.98 492.6 1009.83 502.076 836.593 496.861C838.157 495.903 839.676 494.769 841.149 493.458C846.701 488.874 851.087 481.494 854.307 471.318C857.526 461.143 859.02 448.274 858.787 432.711C858.512 414.336 855.309 400.599 849.178 391.501C843.049 382.591 835.677 378.2 827.062 378.329C820.693 378.424 815.571 380.376 811.694 384.185C808.007 388.179 806.211 393.363 806.306 399.738C806.337 401.801 806.562 404.329 806.982 407.324L807.879 410.968L850.021 410.337L851.498 415.097C852.485 418.458 853.014 422.482 853.084 427.17C853.205 435.233 850.585 441.742 845.227 446.698C839.868 451.655 832.319 454.206 822.579 454.352C812.84 454.497 805.218 452.173 799.713 447.38C794.208 442.586 791.396 436.158 791.275 428.095L791.085 415.439L784.062 415.544L784.335 433.825C784.456 441.888 781.65 448.4 775.917 453.362C770.183 458.324 761.885 460.886 751.021 461.049C728.546 461.386 717.146 450.772 716.824 429.21C716.689 420.209 718.254 412.122 721.519 404.946C724.973 397.955 729.481 392.449 735.041 388.427C740.601 384.406 746.471 382.349 752.652 382.256L752.547 375.225C744.868 375.34 737.692 377.791 731.019 382.58C724.534 387.365 719.297 394.196 715.308 403.07C711.51 412.129 709.702 422.752 709.884 434.94C710.271 460.815 714.203 479.417 721.679 490.745C721.835 490.977 721.993 491.206 722.152 491.433C594.201 483.193 454.219 467.043 302.563 440.384C307.434 433.733 311.77 426.2 315.571 417.786L344.703 430.173C361.35 437.252 373.213 432.468 380.292 415.821L395.629 379.752L391.467 377.983L380.227 392.86L334.447 373.394C341.156 356.589 344.001 340.654 342.981 325.587C341.962 310.52 337.504 297.376 329.608 286.155C321.817 275.198 311.448 266.967 298.501 261.461C285.553 255.956 272.339 254.159 258.858 256.071C245.483 258.247 233.017 264.194 221.458 273.912C209.899 283.631 200.396 296.735 192.947 313.225L147.168 293.759L150.085 275.342L145.923 273.572L112.889 351.259L117.051 353.028L128.292 338.151L174.071 357.617C167.362 374.422 164.517 390.357 165.537 405.424C165.741 408.446 166.082 411.385 166.558 414.241ZM775.537 494.453C786.088 494.967 796.552 495.426 806.93 495.833C806.119 495.192 805.35 494.489 804.622 493.724C800.057 489.103 796.31 482.877 793.383 475.043C790.646 467.395 789.112 458.791 788.781 449.231L787.376 449.252C787.338 459.193 785.983 468.778 783.311 478.007C781.456 484.307 778.865 489.789 775.537 494.453ZM67.1426 0.320068C62.0629 2.41174 58.3976 5.67285 56.1466 10.1034C51.895 18.4717 54.0471 28.3386 62.6028 39.7043C71.0405 51.3025 88.8577 64.0104 116.055 77.828C143.251 91.6458 164.021 98.5424 178.364 98.5179C192.588 98.726 201.826 94.6459 206.078 86.2776C210.329 77.9093 208.236 67.9261 199.799 56.328C191.243 44.9623 173.367 32.3705 146.17 18.5529C136.863 13.8241 128.315 9.89233 120.526 6.75757C101.494 3.31348 83.6451 1.10693 67.1426 0.320068ZM328.898 371.034C332.484 360.546 330.475 349.863 322.869 338.985C315.264 328.106 300.456 317.988 278.444 308.628C256.433 299.268 238.872 295.623 225.761 297.693C212.65 299.762 203.562 305.726 198.496 315.585L328.898 371.034ZM179.62 359.977C176.034 370.464 178.044 381.148 185.649 392.026C193.254 402.904 208.062 413.023 230.074 422.383C252.085 431.742 269.646 435.387 282.757 433.318C295.868 431.249 304.956 425.285 310.022 415.426L179.62 359.977Z" fill="black"/>
</svg>
