<svg width="1024" height="276" viewBox="0 0 1024 276" fill="none" xmlns="http://www.w3.org/2000/svg">
<path fill-rule="evenodd" clip-rule="evenodd" d="M159.529 26.5795L167.343 30.2921L176.424 22.5565L197.546 24.2447L199.122 20.8796L156.446 0.88564L154.87 4.25078L168.562 18.8734L159.529 26.5795ZM66.4283 11.3668L29.2153 37.3611L14.5136 29.4904L2.24041 33.6121L0.0959398 30.5771L25.4176 12.6855C32.4402 7.72351 39.0931 5.24723 45.3764 5.25663C51.7948 5.17061 58.3084 6.93855 64.917 10.5604L66.4283 11.3668ZM86.9728 248.891L124.216 231.922L130.587 245.708L145.656 242.838L147.215 246.211L83.0452 275.867L81.4862 272.493L93.4366 262.877L86.9728 248.891ZM195.467 99.4428C198.126 92.5521 202.013 86.4839 207.129 81.2383C214.632 73.6632 224.118 68.2791 235.588 65.0859C247.058 61.8928 257.692 61.2468 267.49 63.1479C276.565 64.8401 284.27 68.2667 290.604 73.4277L290.624 73.5029L257.401 82.5596C255.753 79.7433 254.01 77.4372 252.173 75.6414C246.941 70.4118 241.855 68.4844 236.917 69.8592C230.49 71.6484 227.362 78.5959 227.533 90.7017L195.467 99.4428ZM330.086 246.554C332.137 246.616 334.334 246.462 336.679 246.093L330.685 239.647C327.823 239.491 324.845 239.079 321.749 238.41C314.665 236.909 307.963 234.368 301.646 230.786L294.417 237.582L323.264 268.268L327.782 264.02C328.542 262.173 329.125 260.378 329.53 258.637C330.462 255.041 330.647 251.013 330.086 246.554ZM394.501 80.0084L400.127 83.0341C404.788 80.9478 410.323 79.6394 416.733 79.109C423.398 78.5287 430.449 78.8082 437.885 79.9473L442.537 71.184L405.337 51.4368L402.43 56.9138C402.343 57.4294 402.37 59.3159 402.511 62.5732C403.139 67.0255 404.262 70.8979 405.88 74.1906C402.597 75.4433 399.155 77.1729 395.553 79.3794C395.198 79.5854 394.848 79.7951 394.501 80.0084ZM564.149 233.666L579.487 233.844L589.023 197.452L603.308 201.278L591.673 244.721L563.207 237.261L564.149 233.666ZM582.013 67.5069L572.903 31.7145L557.564 31.7835L556.648 28.1822L586.074 20.6935L596.804 63.8275L582.013 67.5069ZM707.524 239.035L711.326 234.145L716.586 238.19C722.928 229.941 730.915 223.894 740.545 220.048C744.696 218.448 748.772 217.623 752.772 217.574L758.672 222.109L731.492 257.462L707.524 239.035ZM694.164 35.1624L721.152 21.3102L741.516 60.9827L734.896 64.3806C730.969 63.6113 727.109 62.0654 723.315 59.743C714.534 54.2248 707.768 46.8372 703.017 37.5803L696.963 40.6878L694.164 35.1624ZM850.518 66.7011H843.083L847.529 55.6888L828.887 48.3569L828.866 44.6408L874.753 44.3936L874.773 48.1096L854.97 55.6487L850.518 66.7011ZM727.652 92.2985L714.715 91.7837L713.791 88.1844L743.821 80.473C752.15 78.3343 759.169 78.4078 764.877 80.6933C770.705 82.7777 776.243 86.7269 781.492 92.5409L782.839 94.0537L739.097 105.035L727.652 92.2985ZM822.841 257.146L789.834 230.621L828.653 213.851L829.656 254.158L822.841 257.146ZM903.464 90.9435C896.333 88.7215 889.964 87.9619 884.358 88.6646C875.179 89.9088 868.861 93.9134 865.404 100.678C862.848 105.679 862.253 110.476 863.62 115.069C865.208 119.591 868.506 123.131 873.512 125.69C875.132 126.518 877.195 127.387 879.701 128.297L882.91 129.102L899.823 96.0126L900.774 96.137L903.464 90.9435ZM1006.54 242.976L1003.86 235.96L971.524 248.102C973.383 249.845 975.346 251.222 977.414 252.233C984.692 255.997 992.965 256.11 1002.23 252.572L1023.09 244.613L1021.77 241.141L1006.54 242.976ZM914.906 243.477C900.529 240.334 890.133 234.85 883.719 227.023C880.742 223.391 878.68 219.576 877.533 215.579L916.481 224.313C916.695 225.768 917.021 227.101 917.459 228.312C919.253 233.269 922.25 236.207 926.45 237.125C932.427 238.431 938.544 236.387 944.801 230.992C944.899 230.906 944.998 230.819 945.096 230.73L952.034 232.285C949.659 234.614 947.123 236.692 944.426 238.518C935.57 244.19 925.729 245.843 914.906 243.477ZM119.231 149.059L151.631 76.7008H160.283L122.274 161.43L122.513 205.701H81.5865L81.3619 164.128L37.5114 77.7008H82.9041L119.231 149.059ZM598.741 181.701L598.282 96.7008H613.524V52.2523L685.524 51.8643V58.0579L639.002 58.3086L639.423 136.346L667.947 136.192C669.071 129.91 671.189 124.035 674.301 118.568C675.611 116.084 677.169 113.68 678.975 111.358L686.416 111.318L686.717 167.059L679.276 167.1C677.445 164.797 675.861 162.411 674.525 159.941C671.353 154.507 669.172 148.656 667.981 142.386L639.457 142.54L639.872 219.338L691.524 219.06V225.254L613.524 225.674V181.701H598.741ZM245.549 231.373C224.384 231.487 207.899 225.795 196.097 214.298C184.293 202.635 178.336 186.563 178.225 166.084C178.153 152.706 180.653 141.048 185.726 131.111C187.265 128.096 188.988 125.292 190.895 122.701H224.13C221.537 132.773 220.29 147.158 220.391 165.856C230.974 165.799 239.57 165.34 246.18 164.479C248.99 164.298 251.965 163.869 255.103 163.192C255.264 162.365 255.667 160.546 256.313 157.735C257.118 153.601 257.508 149.222 257.483 144.598C257.435 135.745 256.637 128.446 255.088 122.701H289.524V122.623C289.986 123.269 290.432 123.928 290.86 124.599C295.861 132.004 298.386 140.249 298.435 149.332C298.458 153.461 298.063 157.014 297.253 159.992L296.035 164.21C288.933 165.735 281.25 167.015 272.988 168.05C255.639 170.621 238.118 171.954 220.425 172.05C220.528 191.208 223.248 204.902 228.584 213.132C233.919 221.196 241.217 225.203 250.477 225.153C256.925 225.118 262.87 223.6 268.311 220.598C273.916 217.429 278.276 213.359 281.391 208.388C284.671 203.25 286.296 198.038 286.268 192.753L292.469 192.72C292.504 199.326 290.554 205.613 286.617 211.58C282.681 217.547 277.167 222.367 270.077 226.038C262.985 229.545 254.809 231.323 245.549 231.373ZM348.093 224.132C356.22 228.547 365.409 230.727 375.661 230.672C413.693 230.467 432.645 218.391 432.515 194.443C432.479 187.836 430.547 182.066 426.717 177.132C423.052 172.197 418.565 168.092 413.256 164.817C408.111 161.376 401.145 157.45 392.357 153.038C381.579 147.645 373.533 142.899 368.22 138.799C362.905 134.533 360.231 129.262 360.197 122.986C360.17 118.031 361.719 113.894 364.843 110.574C367.967 107.254 371.761 105.582 376.225 105.558C382.842 105.522 388.941 107.655 394.524 111.957V105.568C387.35 101.405 379.585 99.3458 371.231 99.3909C353.538 99.4862 340.409 102.695 331.845 109.017C323.444 115.174 319.271 123.207 319.325 133.116C319.364 140.383 321.3 146.732 325.133 152.161C329.13 157.425 333.866 161.859 339.343 165.463C344.984 168.901 352.281 172.826 361.234 177.237C371.681 182.631 379.312 187.214 384.128 190.987C389.109 194.594 391.613 199.122 391.643 204.573C391.678 211.014 389.886 215.978 386.266 219.466C382.812 222.788 377.612 224.468 370.667 224.505C360.283 224.561 351.235 220.592 343.524 212.597V221.399C344.919 222.339 346.442 223.25 348.093 224.132ZM458.883 252.521C462.349 251.346 465.811 249.428 469.27 246.767C476.352 241.443 480.695 234.235 482.299 225.143L479.085 227.142C476.942 228.309 474.299 228.902 471.158 228.919C466.197 228.945 461.805 227.152 457.982 223.539C454.324 219.76 452.481 215.393 452.455 210.439C452.428 205.484 454.224 201.18 457.842 197.527C461.625 193.708 465.996 191.785 470.957 191.758C476.744 191.727 481.468 193.766 485.128 197.875C488.953 201.819 490.884 207.176 490.92 213.948C491.002 229.142 486.106 241.06 476.231 249.702C471.953 253.689 467.008 256.689 461.397 258.701L458.883 252.521ZM781.244 189.701H823.531L850.518 122.701H843.083L820.36 178.974L791.473 123.701H746.373L781.244 189.701ZM916.076 208.701H876.16C873.858 204.488 872.693 199.77 872.665 194.548C872.63 188.107 874.001 181.741 876.778 175.45C877.92 172.47 879.393 169.737 881.199 167.25C887.969 165.562 895.32 164.036 903.25 162.672C921.092 159.603 936.874 157.701 950.595 156.966L950.555 149.534C950.456 131.202 948.155 118.579 943.653 111.666C939.151 104.754 932.27 101.322 923.01 101.372C919.538 101.391 916.563 101.82 914.088 102.659L911.524 103.589V97.7403C916.403 96.8733 921.877 96.4235 927.944 96.3908C940.842 96.3213 951.933 98.5738 961.218 103.148C970.668 107.557 977.812 113.795 982.651 121.861C987.654 129.762 990.184 138.915 990.241 149.32L990.561 208.701H956.022C955.49 207.621 955.008 206.472 954.577 205.255C953.922 206.437 953.234 207.586 952.512 208.701H945.401C947.137 206.252 948.944 203.046 950.823 199.082L950.628 163.16C943.022 163.201 935.749 163.653 928.808 164.516C923.686 165.204 920.215 165.636 918.397 165.811C917.58 167.632 916.767 170.114 915.957 173.256C914.337 179.541 913.544 185.739 913.577 191.85C913.615 198.839 914.448 204.456 916.076 208.701Z" fill="black"/>
</svg>
