<svg width="497" height="326" viewBox="0 0 497 326" fill="none" xmlns="http://www.w3.org/2000/svg">
<path fill-rule="evenodd" clip-rule="evenodd" d="M209.853 33.7055L264.238 56.2147L270.36 41.4252L292.863 44.7706L294.972 39.675L199.797 0.283743L197.688 5.37937L215.974 18.916L209.853 33.7055ZM391.627 38.9882L401.151 22.1532C408.943 20.0186 416.636 21.0989 424.228 25.3939C433.834 30.8278 439.857 37.6142 442.297 45.7531C444.737 53.8919 443.423 62.4414 438.354 71.4014C433.768 79.5081 427.967 84.5336 420.95 86.4777C414.146 88.5427 407.116 87.5223 399.858 83.4167C396.869 81.7261 394.002 79.8222 391.255 77.705L387.955 74.5714L412.394 31.3713C405.397 29.5521 398.474 32.0911 391.627 38.9882ZM99.4764 42.3621L92.3943 24.362C84.9756 21.1609 77.2074 21.1573 69.0898 24.3511C58.8199 28.3918 51.9091 34.2716 48.3573 41.9904C44.8056 49.7092 44.9142 58.3584 48.6833 67.938C52.0933 76.6052 57.1369 82.3909 63.8141 85.295C70.263 88.2889 77.3672 88.2594 85.1267 85.2065C88.3218 83.9494 91.4271 82.4642 94.4427 80.7509L98.1469 78.1083L79.9747 31.9212C87.1575 31.0959 93.658 34.5762 99.4764 42.3621ZM380.965 229.688L438.151 297.767C447.822 296.858 457.48 292.353 467.124 284.251L496.701 259.407L493.154 255.184L475.523 262.792L424.786 230.987C416.166 226.064 406.851 224.126 396.84 225.172C391.694 225.534 386.403 227.039 380.965 229.688ZM69.3092 292.418L92.0879 206.475C86.0396 206.392 80.6102 207.282 75.7998 209.144C66.2953 212.457 58.6905 218.175 52.9854 226.299L20.6057 276.671L1.41302 277.289L0.000125059 282.62L37.3377 292.516C49.5135 295.743 60.1707 295.71 69.3092 292.418ZM268.013 269.451L213.952 292.729L220.138 307.095L202.046 320.889L204.227 325.954L298.834 285.218L296.653 280.152L274.199 283.817L268.013 269.451ZM213.009 99.7736V155.46H200.133C193.266 155.46 187.503 153.254 182.843 148.842C178.183 144.431 174.75 138.671 172.542 131.563L163.346 98.4738C160.632 89.4329 156.823 82.4763 151.919 77.604V96.9471C152.056 97.4454 152.186 97.9543 152.309 98.4738L161.506 131.563C163.468 139.651 167.515 146.514 173.646 152.151C175.608 154.112 178.306 155.828 181.739 157.299H170.703C163.73 157.299 157.468 157.982 151.919 159.348V248.03C152.05 247.935 152.18 247.839 152.309 247.742C160.403 241.859 165.921 234.384 168.864 225.315L189.097 164.652H213.009V229.894H271.868V164.652H295.78L316.013 225.315C318.956 234.384 324.352 241.859 332.2 247.742C332.45 247.924 332.703 248.103 332.957 248.279V159.369C327.444 157.989 321.183 157.299 314.174 157.299H303.138C306.571 155.828 309.269 154.112 311.231 152.151C316.872 147.004 320.918 140.141 323.371 131.563L332.568 98.4738C332.691 97.9538 332.822 97.4444 332.958 96.9456V77.6035C328.054 82.4759 324.245 89.4326 321.531 98.4738L312.334 131.563C310.127 138.426 306.448 144.186 301.298 148.842C296.148 153.254 290.017 155.46 282.905 155.46H271.868V99.7736H213.009Z" fill="black"/>
</svg>
